<?xml version="1.0" standalone="no"?>
<!DOCTYPE svg PUBLIC "-//W3C//DTD SVG 20010904//EN"
 "http://www.w3.org/TR/2001/REC-SVG-20010904/DTD/svg10.dtd">
<svg version="1.0" xmlns="http://www.w3.org/2000/svg"
 width="150.000000pt" height="50.000000pt" viewBox="0 0 150.000000 50.000000"
 preserveAspectRatio="xMidYMid meet">

<g transform="translate(0.000000,50.000000) scale(0.100000,-0.100000)"
fill="#000000" stroke="none">
<path d="M890 367 c-8 -8 -41 -20 -73 -26 -33 -7 -82 -22 -110 -32 -61 -23
-41 -20 61 9 l72 21 0 -24 c0 -13 5 -27 10 -30 6 -3 10 3 10 14 0 19 38 43 85
54 15 4 14 5 -7 6 -14 0 -28 6 -30 11 -2 7 -9 5 -18 -3z"/>
<path d="M972 365 c3 -3 48 -6 100 -6 128 0 133 -4 132 -108 -1 -102 -17 -124
-81 -119 -34 2 -40 1 -30 -9 14 -14 97 -20 115 -9 16 9 16 190 1 218 -11 20
-10 21 42 14 30 -4 70 -9 89 -13 19 -3 32 -3 29 1 -11 12 -215 36 -308 36 -52
0 -92 -2 -89 -5z"/>
<path d="M289 333 c-63 -70 -64 -73 -43 -73 22 1 103 100 82 100 -8 0 -25 -12
-39 -27z"/>
<path d="M1100 311 c-12 -24 -14 -114 -1 -107 4 3 11 24 14 48 4 27 14 48 29
60 l23 18 -27 0 c-17 0 -31 -7 -38 -19z"/>
<path d="M1400 320 c14 -4 36 -8 50 -8 22 0 22 1 -5 8 -16 4 -39 8 -50 8 -16
0 -15 -2 5 -8z"/>
<path d="M580 274 c-114 -33 -144 -44 -112 -39 17 2 32 0 32 -5 0 -13 57 -13
65 -1 3 5 -7 11 -22 13 -21 2 -14 6 32 17 33 8 64 18 70 23 12 11 -10 8 -65
-8z"/>
<path d="M1139 225 c-18 -41 -24 -63 -17 -70 7 -7 12 -6 15 3 3 6 9 10 13 7 5
-3 12 0 16 6 4 8 3 9 -4 5 -15 -9 -15 9 -1 35 5 11 9 32 7 47 -3 23 -6 19 -29
-33z"/>
<path d="M863 259 c-20 -7 -23 -15 -23 -69 0 -33 -4 -60 -10 -60 -5 0 -10 -4
-10 -10 0 -5 11 -10 24 -10 24 0 24 2 19 56 -5 47 -3 59 11 70 25 18 16 34
-11 23z"/>
<path d="M583 213 c-54 -65 -57 -72 -33 -66 18 5 90 91 90 107 0 17 -22 1 -57
-41z"/>
<path d="M225 230 c-3 -5 -27 -11 -53 -12 -44 -1 -44 -2 -9 -5 27 -3 37 -9 37
-22 0 -28 12 -33 24 -8 13 26 85 38 87 15 3 -27 -3 -43 -19 -55 -17 -14 -92
-18 -108 -5 -5 4 -2 0 6 -10 18 -20 106 -31 132 -17 17 9 19 17 14 54 -6 37
-4 44 11 48 15 4 15 5 -2 6 -12 0 -27 7 -34 14 -11 10 -13 10 -7 0 9 -16 -30
-18 -39 -3 -3 6 -12 10 -20 10 -8 0 -17 -4 -20 -10z"/>
<path d="M58 223 c12 -2 32 -2 45 0 12 2 2 4 -23 4 -25 0 -35 -2 -22 -4z"/>
<path d="M383 223 c9 -2 25 -2 35 0 9 3 1 5 -18 5 -19 0 -27 -2 -17 -5z"/>
<path d="M493 114 c-29 -12 -9 -20 50 -19 34 0 75 -4 90 -8 25 -7 27 -6 18 11
-8 16 -22 19 -78 20 -37 0 -74 -2 -80 -4z"/>
</g>
</svg>
